<svg xmlns="http://www.w3.org/2000/svg" version="1.0" width="281.000000pt" height="283.000000pt" viewBox="0 0 281.000000 283.000000" preserveAspectRatio="xMidYMid meet">
	<metadata>
		Created by potrace 1.10, written by Peter Selinger 2001-2011
	</metadata>
	<g transform="translate(0.000000,283.000000) scale(0.050000,-0.050000)" fill="white" stroke="none">
		<path d="M2716 5260 c-1383 -220 -2476 -1715 -2225 -3041 288 -1517 1790 -2214 3219 -1494 1621 817 1979 3077 650 4103 -444 343 -1107 517 -1644 432z m647 -652 c271 -51 625 -208 470 -208 -290 0 -839 -208 -1134 -429 -719 -539 -1141 -1360 -1114 -2171 8 -252 17 -302 86 -470 61 -149 -343 348 -436 536 -638 1290 699 3013 2128 2742z m912 -847 c249 -109 317 -270 299 -711 -40 -1021 -871 -1954 -1744 -1959 -479 -2 -678 227 -679 779 -2 1115 1284 2260 2124 1891z" />
	</g>
</svg>
